<svg width="797" height="772" viewBox="0 0 797 772" fill="none" xmlns="http://www.w3.org/2000/svg">
<path d="M398.503 454.299C437.809 454.299 469.673 423.435 469.673 385.362C469.673 347.289 437.809 316.424 398.503 316.424C359.197 316.424 327.333 347.289 327.333 385.362C327.333 423.435 359.197 454.299 398.503 454.299Z" fill="#222222"/>
<path fill-rule="evenodd" clip-rule="evenodd" d="M398.504 245.198C494.06 245.198 582.828 258.479 649.759 280.798C730.401 307.69 779.983 348.452 779.983 385.362C779.983 423.825 727.436 467.129 640.837 494.921C575.366 515.932 489.211 526.901 398.504 526.901C305.505 526.901 217.441 516.605 151.232 494.69C67.4657 466.957 17.0125 423.092 17.0125 385.362C17.0125 348.752 64.3531 308.305 143.862 281.454C211.043 258.766 302.003 245.198 398.492 245.198H398.504Z" stroke="#222222" stroke-width="10"/>
<path fill-rule="evenodd" clip-rule="evenodd" d="M272.536 315.684C320.274 235.504 376.495 167.654 429.894 122.642C494.23 68.4091 555.455 47.1701 588.463 65.6072C622.862 84.8221 635.338 150.55 616.931 237.097C603.028 302.532 569.783 380.301 524.469 456.413C478.007 534.449 424.808 603.201 372.137 647.795C305.488 704.229 241.053 724.652 207.31 705.802C174.567 687.526 162.046 627.585 177.754 547.454C191.025 479.749 224.331 396.646 272.52 315.682L272.536 315.684Z" stroke="#222222" stroke-width="10"/>
<path fill-rule="evenodd" clip-rule="evenodd" d="M272.655 456.618C224.782 376.529 192.189 295.447 178.584 228.157C162.207 147.081 173.786 85.0929 206.764 66.6022C241.13 47.331 306.148 69.6858 374.364 128.357C425.941 172.715 478.903 239.44 524.349 315.48C570.944 393.441 605.866 472.423 619.451 538.894C636.641 623.011 622.728 687.281 589.016 706.184C556.306 724.527 496.449 705.107 432.623 651.905C378.696 606.956 321 537.502 272.655 456.616V456.618Z" stroke="#222222" stroke-width="10"/>
</svg>
